HIERARCHY
ROOT Hips
{
	OFFSET -246.377396 91.733124 -540.268188
	CHANNELS 6 Xposition Yposition Zposition Zrotation Yrotation Xrotation 
	JOINT LeftUpLeg
	{
		OFFSET 0.103454 1.857841 10.548504
		CHANNELS 3 Zrotation Yrotation Xrotation
		JOINT LeftLeg
		{
			OFFSET 43.499992 -0.000061 0.000000
			CHANNELS 3 Zrotation Yrotation Xrotation
			JOINT LeftFoot
			{
				OFFSET 42.372196 0.000008 -0.000002
				CHANNELS 3 Zrotation Yrotation Xrotation
				JOINT LeftToe
				{
					OFFSET 17.300022 0.000011 0.000012
					CHANNELS 3 Zrotation Yrotation Xrotation
					End Site
					{
						OFFSET 0.000000 0.000000 0.000000
					}
				}
			}
		}
	}
	JOINT RightUpLeg
	{
		OFFSET 0.103458 1.857820 -10.548491
		CHANNELS 3 Zrotation Yrotation Xrotation
		JOINT RightLeg
		{
			OFFSET 43.500046 0.000015 0.000006
			CHANNELS 3 Zrotation Yrotation Xrotation
			JOINT RightFoot
			{
				OFFSET 42.372269 -0.000046 0.000017
				CHANNELS 3 Zrotation Yrotation Xrotation
				JOINT RightToe
				{
					OFFSET 17.300032 0.000011 0.000015
					CHANNELS 3 Zrotation Yrotation Xrotation
					End Site
					{
						OFFSET 0.000000 0.000000 0.000000
					}
				}
			}
		}
	}
	JOINT Spine
	{
		OFFSET 6.901962 -2.603707 -0.000004
		CHANNELS 3 Zrotation Yrotation Xrotation
		JOINT Spine1
		{
			OFFSET 12.588104 -0.000004 -0.000001
			CHANNELS 3 Zrotation Yrotation Xrotation
			JOINT Spine2
			{
				OFFSET 12.343199 -0.000026 0.000003
				CHANNELS 3 Zrotation Yrotation Xrotation
				JOINT Neck
				{
					OFFSET 25.832890 0.000004 -0.000006
					CHANNELS 3 Zrotation Yrotation Xrotation
					JOINT Head
					{
						OFFSET 11.766623 0.000031 0.000004
						CHANNELS 3 Zrotation Yrotation Xrotation
						End Site
						{
							OFFSET 0.000000 0.000000 0.000000
						}
					}
				}
				JOINT LeftShoulder
				{
					OFFSET 19.745897 -1.480345 6.000100
					CHANNELS 3 Zrotation Yrotation Xrotation
					JOINT LeftArm
					{
						OFFSET 11.284126 0.000003 -0.000015
						CHANNELS 3 Zrotation Yrotation Xrotation
						JOINT LeftForeArm
						{
							OFFSET 33.000057 -0.000023 0.000027
							CHANNELS 3 Zrotation Yrotation Xrotation
							JOINT LeftHand
							{
								OFFSET 25.199987 0.000051 0.000021
								CHANNELS 3 Zrotation Yrotation Xrotation
								End Site
								{
									OFFSET 0.000000 0.000000 0.000000
								}
							}
						}
					}
				}
				JOINT RightShoulder
				{
					OFFSET 19.746086 -1.480362 -6.000076
					CHANNELS 3 Zrotation Yrotation Xrotation
					JOINT RightArm
					{
						OFFSET 11.284140 0.000004 -0.000015
						CHANNELS 3 Zrotation Yrotation Xrotation
						JOINT RightForeArm
						{
							OFFSET 33.000084 -0.000023 0.000011
							CHANNELS 3 Zrotation Yrotation Xrotation
							JOINT RightHand
							{
								OFFSET 25.199789 0.000148 0.000422
								CHANNELS 3 Zrotation Yrotation Xrotation
								End Site
								{
									OFFSET 0.000000 0.000000 0.000000
								}
							}
						}
					}
				}
			}
		}
	}
}
MOTION
Frames: 15
Frame Time: 0.033333
308.599792 90.790329 -220.803802 94.149274 -1.000460 39.873900 149.202764 -2.712199 -163.598658 -52.002492 -0.676096 0.055546 73.654130 -2.110265 -6.841864 21.454553 0.003093 -0.000001 170.767802 5.572692 165.930881 -27.376988 5.667135 -10.205733 87.850187 6.100532 -4.236297 21.454558 -0.003103 -0.000018 9.161088 -1.373399 2.695126 8.244246 -2.935089 5.287249 7.927176 -2.903013 5.304813 -21.101714 -16.206191 1.339909 -21.189094 17.414512 -11.863253 -145.914192 -70.298909 -36.523798 7.548606 63.209945 -4.405346 -111.130299 -1.248432 3.323836 41.425702 3.952950 94.706488 -153.742313 78.668548 28.217125 -0.521451 -68.443878 35.306925 -110.105805 -2.040176 -3.099757 28.354639 -25.192874 -54.940515 
307.043701 91.405052 -220.676407 96.085844 -1.294137 39.093383 150.251198 -0.051299 -161.065942 -41.784580 -1.481163 0.826403 74.514386 -2.369527 -6.145662 21.454557 0.003090 -0.000001 170.330820 6.701704 169.602435 -26.217504 5.570834 -11.708455 86.300635 6.932548 -5.145793 21.454558 -0.003107 -0.000016 9.097884 -1.822918 3.035166 8.087479 -3.853199 5.938794 7.770464 -3.817190 5.961851 -21.560448 -18.234781 1.532021 -21.781953 18.167297 -12.939212 -145.439999 -69.789015 -37.030830 7.551909 62.585706 -6.104165 -112.195098 -0.945858 3.348296 39.880293 7.501023 90.999970 -156.696315 78.984130 25.206159 -0.932956 -66.281877 33.853092 -107.199075 -1.968104 -2.977581 21.143998 -32.816795 -39.055093 
305.431610 91.259560 -220.544006 96.848319 -1.602062 37.795596 152.192666 1.058306 -158.310972 -31.965255 -3.313363 2.144411 75.084386 -3.375744 -6.615909 21.454551 0.003095 0.000000 169.191463 6.739901 172.151517 -28.290700 5.826966 -12.852340 86.450005 7.591726 -5.849618 21.454562 -0.003104 -0.000018 9.259201 -2.093040 3.375102 8.384231 -4.424800 6.594407 8.067429 -4.384851 6.620881 -21.261846 -19.913275 1.536416 -23.036860 18.889423 -14.088190 -145.344964 -69.272304 -37.148415 7.029800 62.205948 -8.574454 -113.115098 -0.698957 3.370259 36.963864 10.911429 86.083558 -159.912200 79.439212 21.929246 -4.690075 -63.779111 35.508945 -104.396798 -1.863466 -2.860984 12.983463 -37.015404 -24.487659 
303.786407 90.710327 -220.459900 97.300744 -1.397599 35.933226 154.024140 1.191301 -160.448944 -25.935111 -5.400546 2.429817 72.848933 -1.952376 -1.154858 21.454550 0.003093 0.000000 166.873215 6.634198 174.029996 -33.601829 5.434908 -14.609952 86.935659 8.737303 -6.480653 21.454560 -0.003123 -0.000019 9.543804 -2.434772 3.566329 8.927786 -5.137176 6.940745 8.610865 -5.095145 6.971514 -20.883578 -20.181191 1.583399 -23.012973 19.012877 -14.120410 -144.616046 -68.790312 -37.918106 6.682360 62.054229 -10.377018 -113.769204 -0.616769 3.392242 32.917127 12.203927 81.853868 -165.859888 80.355939 15.879196 -8.440814 -61.844194 37.171129 -102.404179 -1.463945 -2.800117 8.132341 -35.440622 -16.589268 
302.137604 89.507683 -220.352402 97.042242 -0.863211 34.440614 153.254596 2.037285 -168.349519 -32.174477 -0.309090 4.894425 77.814112 -3.669780 -0.893910 21.454553 0.003091 0.000000 162.565838 7.092403 175.720427 -43.746747 5.284606 -17.550289 85.679662 11.306611 -4.125988 21.454560 -0.003119 -0.000016 10.036856 -2.741494 3.489774 9.903161 -5.771454 6.739961 9.585738 -5.730618 6.774572 -20.046791 -20.065294 1.671301 -23.190342 19.435788 -14.061060 -145.351439 -68.504502 -37.171095 6.698960 61.764281 -12.116023 -114.651801 -0.505351 3.421713 29.244889 11.230869 79.671589 -173.851564 81.387004 7.774920 -11.680651 -61.460747 38.842787 -101.620108 -1.173478 -2.785368 6.626715 -29.820995 -14.817332 
300.520996 88.188019 -220.570099 96.638024 -0.143077 33.161012 151.843903 0.939406 -165.881239 -38.034141 -3.416907 3.806192 81.164511 -2.875524 -1.309860 21.454553 0.003089 -0.000001 156.540873 7.987197 177.049240 -55.549020 4.355288 -20.804000 80.638074 16.183541 5.290589 21.454558 -0.003113 -0.000017 10.766897 -3.219139 3.245633 11.358400 -6.741241 6.169002 11.039947 -6.703800 6.209556 -19.797163 -19.263802 1.625812 -22.895923 19.382294 -13.682537 -146.248243 -68.749406 -36.237114 3.594932 61.345453 -16.030370 -113.914810 -0.402854 3.383549 24.826894 8.869225 79.415887 178.064302 81.436748 -0.415268 -15.688466 -61.275908 40.534499 -101.074096 -0.812145 -2.786159 5.984660 -21.100712 -17.211061 
298.771088 87.170517 -221.036194 96.285518 -0.409678 32.754517 150.372625 -2.130095 -169.683168 -42.464550 -4.318359 6.746235 83.264712 -4.579362 0.002813 21.454550 0.003092 0.000000 150.746756 8.264689 178.445331 -64.597347 3.259250 -22.148343 74.673611 21.063827 15.604617 21.454560 -0.003116 -0.000018 11.362254 -3.485455 2.942158 12.561684 -7.269628 5.497916 12.242420 -7.236209 5.541758 -17.208790 -19.627730 1.174172 -23.160533 19.164362 -13.753704 -150.052713 -70.762105 -32.250514 -0.225205 60.801627 -19.365779 -111.554488 -0.864507 3.315288 21.687847 3.534663 82.554953 169.727715 81.720966 -8.848946 -18.412448 -62.236766 40.261202 -100.197612 -0.233643 -2.783989 5.428113 -10.570038 -25.994482 
297.087402 86.883774 -221.696701 96.802509 -1.817801 33.340513 149.130733 -4.610002 -171.002474 -43.585401 -4.367281 8.583807 84.461990 -5.770623 0.378642 21.454550 0.003096 0.000000 145.378746 8.243191 -178.779915 -68.866257 1.065885 -20.490368 75.112738 19.707589 15.209831 21.454557 -0.003106 -0.000015 11.699084 -3.505128 2.569472 13.261078 -7.281539 4.728094 12.941381 -7.252757 4.772074 -14.590749 -19.692422 0.648717 -21.562019 17.961333 -12.971449 -154.939891 -73.019804 -27.168602 -6.188262 59.953392 -22.370886 -107.882695 -1.675593 3.213407 19.808040 -2.653609 91.904635 170.846295 81.412535 -7.726376 -21.988892 -62.524658 39.970448 -98.611956 0.707144 -2.781982 5.314281 -4.773497 -41.300272 
295.495789 87.288979 -222.484406 97.360276 -3.674558 35.283992 148.358990 -5.627302 -170.021304 -42.389503 -3.185308 9.267754 84.371442 -6.488340 -0.555114 21.454557 0.003090 -0.000000 141.358374 8.640900 -177.412279 -68.471123 0.481682 -15.223100 78.467317 15.197190 14.976375 21.454563 -0.003108 -0.000018 12.094170 -3.318622 2.058884 14.089246 -6.863171 3.703390 13.769399 -6.840559 3.744894 -11.643831 -18.849109 0.235311 -20.728576 16.965835 -12.037378 -159.050804 -75.096823 -22.916015 -13.538904 58.833399 -24.943188 -103.581690 -2.527866 3.084646 18.161031 -7.376014 102.960109 171.761308 81.390085 -6.800500 -25.318418 -62.898242 40.152561 -97.311419 1.562291 -2.783422 9.182042 -4.477420 -59.388577 
293.953308 87.938492 -223.566193 97.620882 -6.126274 37.647217 147.121838 -7.113805 -168.059509 -40.882138 -2.411668 9.682183 83.267861 -7.069732 -1.585074 21.454551 0.003091 0.000000 138.675107 8.464093 -177.589440 -63.731614 0.475447 -9.839188 79.777217 10.365538 12.567343 21.454553 -0.003111 -0.000016 12.646764 -2.871459 1.694861 15.222914 -5.940898 2.999957 14.903440 -5.922546 3.035872 -10.229795 -18.434638 -0.021395 -20.496496 17.006070 -11.913899 -162.872131 -77.208493 -18.984605 -21.440015 58.290631 -27.975926 -100.089210 -3.256342 2.981183 17.806773 -8.139673 110.630206 171.036311 81.434180 -7.533342 -26.824173 -61.773945 39.910848 -96.359038 1.903637 -2.764602 18.139121 -8.356842 -71.665917 
292.377594 88.568443 -224.739594 97.776405 -8.951820 39.539610 144.804272 -9.182010 -166.798479 -40.652360 -2.067185 9.864821 81.049839 -7.388421 -1.989345 21.454555 0.003088 -0.000001 137.228787 7.542295 -179.608417 -55.561564 0.742935 -4.706990 80.875348 5.995190 10.722343 21.454555 -0.003108 -0.000017 13.250967 -2.280677 1.572258 16.444669 -4.761682 2.805946 16.125805 -4.744514 2.834693 -9.956280 -17.517309 -0.367807 -20.955579 16.741454 -11.945691 -167.811724 -78.837520 -13.942404 -28.264117 57.514277 -30.754822 -98.638129 -3.652270 2.944472 19.088630 -5.850157 109.850404 169.062605 81.692150 -9.522974 -28.059843 -58.974421 39.988995 -94.845236 2.287138 -2.723559 28.220030 -13.931257 -74.771782 
290.885712 88.718010 -225.858307 98.603664 -11.707633 41.729614 140.218101 -10.811008 -166.184773 -43.059883 -3.037128 9.775152 77.727792 -7.277250 -1.437820 21.454560 0.003091 -0.000001 136.366612 8.066299 178.570364 -45.579696 1.138004 -0.132313 81.513738 2.102421 8.606199 21.454558 -0.003112 -0.000018 13.727326 -1.654369 1.393193 17.411192 -3.499607 2.522199 17.092794 -3.484186 2.543308 -9.364457 -16.629899 -1.004884 -21.765981 16.543741 -12.327683 -177.320467 -79.885824 -4.281207 -32.600554 55.476811 -31.677714 -97.926396 -3.802163 2.923333 19.779492 -2.402882 101.906702 164.561182 81.760718 -14.074798 -29.222985 -54.431290 40.475312 -92.017818 2.845846 -2.636012 36.406882 -21.682420 -69.301613 
289.299011 88.204910 -226.814499 99.362088 -13.939188 44.602785 134.512666 -12.250790 -168.457313 -47.938588 -4.171229 10.059464 74.433674 -7.237281 -0.378422 21.454555 0.003088 0.000000 136.494282 10.061603 178.756665 -35.907684 1.510821 3.795938 82.764606 -1.027034 7.593925 21.454557 -0.003109 -0.000017 14.233635 -1.003598 1.108823 18.438261 -2.171145 2.043623 18.120140 -2.158642 2.056713 -8.215493 -14.802376 -1.936992 -22.897019 16.056986 -12.632950 170.200200 -81.576221 8.335019 -36.572350 52.784942 -32.335622 -96.368259 -3.946996 2.864175 18.192757 2.131977 88.206094 159.309395 81.768033 -19.385084 -31.765820 -48.984542 39.488022 -87.599041 5.992025 -2.658854 38.623210 -28.831632 -58.025435 
287.641815 87.081268 -227.850906 99.983362 -16.825954 46.960330 126.567681 -14.933505 -172.419082 -55.742694 -5.284642 9.372333 71.264814 -7.430052 -2.236908 21.454545 0.003096 -0.000001 135.537359 11.414393 -179.263342 -30.820675 1.402624 5.675897 78.451027 0.150939 16.422153 21.454560 -0.003110 -0.000018 14.552691 -0.302168 1.051115 19.085994 -0.773747 2.037877 18.768101 -0.761284 2.042529 -7.595613 -12.438643 -2.772838 -23.230845 15.008082 -12.413307 150.708629 -83.121339 27.956611 -40.405224 48.859683 -32.802591 -93.830058 -4.154368 2.765749 15.749904 5.986492 73.986221 154.257022 82.128394 -24.471724 -34.886813 -44.027864 38.846277 -83.601720 9.013823 -2.693282 35.717050 -31.624575 -50.034503 
286.217407 85.736053 -228.718903 100.955701 -18.465638 47.761717 119.549730 -16.979709 -179.150029 -63.820543 -3.818003 5.988628 69.622591 -8.000755 -10.457547 21.454550 0.003102 0.000002 131.425872 14.075604 -173.782948 -35.921908 4.358933 3.029684 74.498540 0.522482 9.418951 21.454558 -0.003113 -0.000018 15.004259 -0.019953 1.130673 19.993401 -0.235101 2.240772 19.675564 -0.221439 2.242163 -6.412978 -10.148149 -3.577158 -23.905228 14.126714 -12.281269 128.414591 -83.280749 50.385725 -44.293039 42.605115 -31.422244 -90.399131 -6.077524 2.747917 13.018755 8.975291 63.113236 147.765542 82.144595 -31.023074 -38.337671 -39.231906 38.938348 -80.373199 11.898257 -2.753705 31.280361 -29.146972 -46.916730 
